<svg xmlns="http://www.w3.org/2000/svg" version="1.1" xmlns:xlink="http://www.w3.org/1999/xlink" xmlns:svgjs="http://svgjs.dev/svgjs" width="1440" height="560" preserveAspectRatio="none" viewBox="0 0 1440 560"><g mask="url(&quot;#SvgjsMask1064&quot;)" fill="none"><rect width="1440" height="560" x="0" y="0" fill="rgba(219, 219, 219, 0.55)"></rect><path d="M 0,291 C 48,278.6 144,175.2 240,229 C 336,282.8 384,589.2 480,560 C 576,530.8 624,90.6 720,83 C 816,75.4 864,530.8 960,522 C 1056,513.2 1104,51 1200,39 C 1296,27 1392,377.4 1440,462L1440 560L0 560z" fill="rgba(122, 191, 255, 0.29)"></path><path d="M 0,519 C 72,470.4 216,316 360,276 C 504,236 576,372.2 720,319 C 864,265.8 936,14.4 1080,10 C 1224,5.6 1368,239.6 1440,297L1440 560L0 560z" fill="rgba(66, 105, 212, 0.18)"></path></g><defs><mask id="SvgjsMask1064"><rect width="1440" height="560" fill="#ffffff"></rect></mask></defs></svg>